HIERARCHY
ROOT Hips
{
    OFFSET 0.000000 0.000000 0.000000
    CHANNELS 6 Xposition Yposition Zposition Zrotation Xrotation Yrotation
    JOINT Spine
    {
        OFFSET -0.000000 0.083210 0.000000
        CHANNELS 3 Zrotation Xrotation Yrotation
        JOINT Spine1
        {
            OFFSET -0.000000 0.256334 0.000000
            CHANNELS 3 Zrotation Xrotation Yrotation
            JOINT Neck
            {
                OFFSET -0.000000 0.275576 0.002912
                CHANNELS 3 Zrotation Xrotation Yrotation
                JOINT Head
                {
                    OFFSET -0.000000 0.157287 0.020295
                    CHANNELS 3 Zrotation Xrotation Yrotation
                    End Site
                    {
                        OFFSET -0.000000 0.202951 0.000000
                    }
                }
            }
            JOINT LeftShoulder
            {
                OFFSET 0.041044 0.235234 -0.000041
                CHANNELS 3 Zrotation Xrotation Yrotation
                JOINT LeftArm
                {
                    OFFSET 0.117964 0.000000 0.000000
                    CHANNELS 3 Zrotation Xrotation Yrotation
                    JOINT LeftForeArm
                    {
                        OFFSET 0.291248 0.000000 0.000000
                        CHANNELS 3 Zrotation Xrotation Yrotation
                        JOINT LeftHand
                        {
                            OFFSET 0.245673 0.000000 0.000000
                            CHANNELS 3 Zrotation Xrotation Yrotation
                            End Site
                            {
                                OFFSET 0.152213 0.000000 0.000000
                            }
                        }
                    }
                }
            }
            JOINT RightShoulder
            {
                OFFSET -0.040052 0.235234 -0.000041
                CHANNELS 3 Zrotation Xrotation Yrotation
                JOINT RightArm
                {
                    OFFSET -0.117964 0.000000 0.000000
                    CHANNELS 3 Zrotation Xrotation Yrotation
                    JOINT RightForeArm
                    {
                        OFFSET -0.291248 0.000000 0.000000
                        CHANNELS 3 Zrotation Xrotation Yrotation
                        JOINT RightHand
                        {
                            OFFSET -0.245673 0.000000 0.000000
                            CHANNELS 3 Zrotation Xrotation Yrotation
                            End Site
                            {
                                OFFSET -0.152213 0.000000 0.000000
                            }
                        }
                    }
                }
            }
        }
    }
    JOINT LeftUpLeg
    {
        OFFSET 0.101475 0.000000 0.000000
        CHANNELS 3 Zrotation Xrotation Yrotation
        JOINT LeftLeg
        {
            OFFSET -0.000000 -0.446535 0.000000
            CHANNELS 3 Zrotation Xrotation Yrotation
            JOINT LeftFoot
            {
                OFFSET -0.000000 -0.400037 0.000000
                CHANNELS 3 Zrotation Xrotation Yrotation
                JOINT LeftToeBase
                {
                    OFFSET -0.000000 -0.065959 0.152213
                    CHANNELS 3 Zrotation Xrotation Yrotation
                    End Site
                    {
                        OFFSET -0.000000 0.000000 0.040590
                    }
                }
            }
        }
    }
    JOINT RightUpLeg
    {
        OFFSET -0.101475 0.000000 0.000000
        CHANNELS 3 Zrotation Xrotation Yrotation
        JOINT RightLeg
        {
            OFFSET -0.000000 -0.446535 0.000000
            CHANNELS 3 Zrotation Xrotation Yrotation
            JOINT RightFoot
            {
                OFFSET -0.000000 -0.400037 0.000000
                CHANNELS 3 Zrotation Xrotation Yrotation
                JOINT RightToeBase
                {
                    OFFSET -0.000000 -0.065959 0.152213
                    CHANNELS 3 Zrotation Xrotation Yrotation
                    End Site
                    {
                        OFFSET -0.000000 0.000000 0.040590
                    }
                }
            }
        }
    }
}
MOTION
Frames:    11
Frame Time:    0.008333
-0.007175    0.889159    0.004394    -3.044282    3.948962    -91.870605    -1.486756    1.921315    -0.271685    0.607406    -1.540704    -0.091145    6.929657    -6.012745    1.265651    2.587047    10.809587    1.287832    37.392841    -16.926826    8.320206    -6.732977    -17.477119    -15.676121    53.344627    -44.352135    -43.634422    28.366964    -20.325081    21.329912    -24.859669    -8.881560    0.636825    2.408115    -11.201985    6.025489    -49.516399    -43.530670    26.759256    -30.524847    -28.318344    -22.688812    23.696609    -0.052768    -16.967596    2.615587    31.606802    -6.785375    -18.512642    -15.586086    -2.884867    0.082061    -14.410359    2.001199    -19.449413    -1.660663    14.230950    0.612033    31.974340    11.178697    19.123997    -12.713539    -12.341912    0.173514    -15.402330    1.082500    
-0.011869    0.901621    0.004117    -3.405753    3.950522    -91.911232    -1.598664    1.392473    -0.181008    0.751473    -1.151210    -0.059481    6.720625    -5.554862    1.043350    2.622256    11.208807    1.052553    35.579681    -15.930298    7.313148    -7.645475    -16.011669    -13.799507    50.472195    -43.767021    -44.527321    27.621096    -20.725733    20.850550    -23.366123    -7.809050    1.686168    3.242133    -10.391054    4.447530    -45.400257    -42.928501    26.684839    -29.662302    -29.047436    -21.757097    23.737970    1.249643    -16.138756    2.347080    29.273672    -6.414804    -16.748947    -11.872458    -2.199292    0.123087    -15.927631    2.250362    -19.669964    -0.472988    13.205587    0.967500    29.582907    10.474137    17.990772    -8.228241    -12.079296    0.125658    -17.186514    0.713759    
-0.016237    0.914515    0.004042    -3.665352    3.855183    -91.889618    -1.763714    0.812525    -0.165901    0.839573    -0.843558    -0.054260    6.509166    -4.918273    0.883661    2.682044    11.455400    0.888117    33.880539    -14.822855    6.355907    -8.594337    -13.835627    -11.791816    47.900475    -43.241253    -44.921383    27.928396    -21.083765    20.617266    -21.908182    -6.717533    2.756595    4.146540    -9.507258    2.881050    -41.357948    -42.133621    26.344110    -28.268528    -29.758385    -20.412703    23.539680    2.281217    -15.099094    2.222475    27.129337    -6.316682    -14.574728    -7.841646    -1.423588    0.206088    -17.629187    2.937618    -19.921724    0.589827    11.765157    1.124169    27.206184    10.038578    16.902510    -3.536912    -11.744707    0.113597    -18.634897    0.601385    
-0.020233    0.927552    0.004156    -3.792415    3.680957    -91.824478    -1.969134    0.150266    -0.217814    0.926799    -0.589059    -0.069205    6.238105    -4.291539    0.705618    2.727781    11.756884    0.697666    32.404152    -13.932384    5.500352    -9.954288    -11.759698    -9.629588    44.480404    -42.355309    -46.202946    27.258867    -21.293259    19.767605    -20.606607    -5.757489    3.790792    5.211117    -8.334351    1.430261    -37.701542    -41.122265    25.502779    -26.308201    -30.370073    -18.720217    23.087345    2.987190    -14.003603    2.229949    25.319170    -5.955302    -12.429710    -3.785761    -1.025553    0.269680    -18.641338    3.396234    -20.122257    1.474756    10.106275    1.140301    24.930723    9.317137    15.606545    1.338910    -10.947868    0.045209    -19.583967    0.229106    
-0.023789    0.940490    0.004329    -3.782778    3.470743    -91.719193    -2.181184    -0.584020    -0.298366    1.022810    -0.385894    -0.092231    5.876739    -3.667705    0.620255    2.815709    11.998414    0.581993    30.640610    -12.817225    4.662917    -11.091031    -9.273515    -7.548163    41.751221    -41.357353    -46.610199    26.394831    -21.555216    18.668922    -19.464720    -5.085873    4.709412    6.526979    -6.686514    0.147902    -34.604595    -40.060589    24.111256    -24.097475    -30.909269    -16.868799    22.474646    3.356195    -12.879610    2.351286    23.919777    -5.836830    -11.033168    -0.201819    -0.541851    0.275206    -17.612780    3.930453    -20.158155    2.117019    8.374954    0.945111    23.004025    9.265763    14.242082    5.642043    -10.674892    0.020463    -19.108831    0.105969    
-0.026815    0.953175    0.004540    -3.645699    3.267510    -91.552910    -2.339553    -1.343691    -0.389396    1.078127    -0.270680    -0.118165    5.508141    -3.050061    0.512570    2.851528    12.181742    0.451324    28.944675    -11.781754    3.828821    -12.400234    -6.619745    -5.496947    39.023521    -40.111496    -46.835613    25.532578    -21.631107    17.358074    -18.460194    -4.626578    5.400139    8.174240    -4.682585    -0.873987    -32.278748    -38.923672    22.129477    -20.877092    -31.412903    -14.625101    21.746382    3.391716    -11.877909    2.512171    23.058020    -5.554324    -10.110192    2.365252    0.084095    0.144453    -14.033591    3.838506    -19.978325    2.504739    6.582698    0.463961    21.610815    9.645618    13.431784    8.514396    -10.824018    0.028141    -15.512834    0.174507    
-0.029342    0.965322    0.004699    -3.426398    3.091061    -91.366165    -2.451037    -2.097880    -0.450563    1.095901    -0.189456    -0.133515    5.227193    -2.483471    0.414501    2.800817    12.239843    0.357016    27.061201    -10.581898    3.103230    -13.567908    -4.180189    -3.816338    36.528839    -38.517010    -46.656597    24.892715    -21.303078    16.028345    -17.540218    -4.320615    5.880101    10.028756    -2.843997    -1.748943    -29.998083    -37.861572    20.244913    -17.422916    -31.830755    -12.155504    20.923008    3.132265    -10.947329    2.707581    22.778151    -5.357041    -8.884248    3.865415    0.926388    -0.004872    -9.644084    3.222291    -19.533768    2.611441    5.408186    -0.043227    20.924818    10.426718    12.840449    9.371700    -12.350041    -0.007092    -11.169971    -0.057613    
-0.031313    0.976817    0.004899    -3.122305    2.927737    -91.168434    -2.456390    -2.843227    -0.569703    1.025911    -0.163912    -0.168177    4.831976    -1.867892    0.396495    2.840993    12.095553    0.314966    24.939835    -9.245301    2.372700    -14.509813    -1.690518    -2.188504    34.599865    -36.855042    -45.735966    22.582676    -21.195839    14.234691    -16.680555    -4.060287    6.308105    12.087344    -1.109035    -2.434206    -28.074177    -37.041042    18.266563    -14.451786    -32.216827    -9.895922    20.093111    2.682474    -10.208951    2.752623    22.743469    -4.893147    -7.567196    4.448072    1.393594    -0.063345    -6.515729    2.178003    -18.909664    2.434650    4.847419    -0.393724    20.808653    10.678265    11.431718    9.014025    -14.481396    0.033977    -8.463226    0.341759    
-0.032756    0.987513    0.005056    -2.751726    2.780732    -91.004715    -2.440218    -3.580240    -0.616320    0.906265    -0.107124    -0.179360    4.604754    -1.420148    0.371527    2.789833    11.862020    0.298421    22.700592    -7.664890    1.689002    -15.282530    0.520285    -0.873328    32.818634    -35.162178    -44.502655    21.092607    -20.845470    12.867743    -15.847409    -3.610703    6.558716    14.325749    0.294193    -2.978985    -26.531639    -36.522770    16.285465    -11.838360    -32.680943    -7.726375    19.292549    2.134947    -9.609315    2.749918    22.871365    -4.340765    -7.210575    4.228371    1.212396    -0.066257    -6.497695    2.265782    -18.309956    2.110335    5.063268    -0.436660    20.921522    10.134435    10.610476    7.827222    -16.645306    0.048295    -8.708644    0.475528    
-0.033740    0.997257    0.005220    -2.336531    2.651615    -90.851997    -2.350610    -4.306322    -0.632383    0.699382    0.012491    -0.181413    4.433963    -1.121252    0.359426    2.745398    11.528887    0.294933    20.610832    -6.191144    1.185662    -16.228233    2.575814    0.087663    30.978657    -33.530838    -43.058044    19.524097    -20.616638    11.418952    -14.903442    -3.084340    6.700862    16.506346    1.664286    -3.337886    -25.356684    -36.473885    14.032454    -9.922883    -33.459354    -5.824951    18.501410    1.485685    -9.103205    2.735948    23.120701    -3.831230    -7.383576    3.450455    0.684563    -0.057691    -6.512513    1.981689    -17.731869    1.692612    5.691283    -0.234272    21.134430    9.007318    9.866562    6.177650    -18.237085    0.026479    -8.172038    0.273335    
-0.034357    1.005986    0.005418    -1.942726    2.501701    -90.734840    -2.270732    -4.975122    -0.613605    0.468481    0.254659    -0.172685    4.312137    -1.049922    0.357200    2.718330    11.166725    0.294864    18.705387    -4.822916    0.956775    -17.348913    4.267954    0.613951    28.951515    -31.915567    -41.529724    17.550873    -20.489731    9.768523    -13.990369    -2.440549    6.753152    19.074720    2.958333    -3.558755    -25.227074    -36.932590    11.554477    -7.469078    -34.608170    -4.144292    17.665293    0.833203    -8.543362    2.689521    23.362202    -3.432534    -7.388129    2.691314    -0.273029    -0.053044    -6.500096    1.815268    -17.191727    1.251935    6.201159    -0.035511    21.312012    7.437411    8.933343    4.925887    -18.793533    0.032071    -7.472625    0.353335    
